<svg width="24" height="24" viewBox="0 0 24 24" fill="none" xmlns="http://www.w3.org/2000/svg">
<path d="M11.9941 2.02441L12.0098 2.00977L21.9961 12C21.9973 11.9997 21.9988 12.0003 22 12C22 17.5228 17.5228 22 12 22C6.47715 22 2 17.5228 2 12C2 6.47715 6.47715 2 12 2C11.9981 2.00815 11.9961 2.01627 11.9941 2.02441ZM10.7773 3.08398C6.38523 3.68064 3 7.44421 3 12C3 16.9706 7.02944 21 12 21C16.5662 21 20.3344 17.5991 20.918 13.1924C17.59 13.6022 14.7829 12.7718 12.9219 10.8711C11.0791 8.98875 10.3333 6.23067 10.7773 3.08398Z" fill="black"/>
</svg>
