<svg width="24" height="24" viewBox="0 0 24 24" fill="none" xmlns="http://www.w3.org/2000/svg">
<path d="M16.0078 9.86816H16V11.6201H16.0078V13.3721H16V15.124H16.0078V16H16V22H2V8H8V7.99707H8.875V8H10.627V7.99512L12.3789 7.99414V8H14.1309V7.99316L15.0068 7.99219L16.0078 7.99121V9.86816ZM3 21H15V9H3V21ZM19.3779 16H17.6299V15H19.3779V16ZM22 16H21V15.125H21.126V15H22V16ZM22 13.375H21V11.625H22V13.375ZM22 9.875H21V8.125H22V9.875ZM22 6.375H21V4.625H22V6.375ZM9 6.37305H8V4.62402H9V6.37305ZM9 2.875H8.875V3H8V2H9V2.875ZM12.375 3H10.625V2H12.375V3ZM15.875 3H14.125V2H15.875V3ZM19.375 3H17.625V2H19.375V3ZM22 3H21.125V2.875H21V2H22V3Z" fill="#151515"/>
</svg>
