<svg width="32" height="32" viewBox="0 0 32 32" fill="none" xmlns="http://www.w3.org/2000/svg">
<path d="M12.0704 25.4641C12.0704 25.4641 6.07196 27.0656 5.32098 27.287C4.66495 27.4805 4.54798 27.3297 4.63999 26.873L4.69231 26.6583C4.85798 26.0374 6.5303 19.9334 6.53233 19.926L12.0704 25.4641ZM6.9346 23.404C6.7179 24.1957 6.49783 25.0042 6.31946 25.6572C6.99952 25.4724 7.83505 25.2469 8.63752 25.0312C8.9475 24.9479 9.25418 24.8661 9.54671 24.7877L7.19888 22.4398C7.11403 22.7497 7.02462 23.0752 6.9346 23.404ZM12.9976 24.5441L7.45594 19.0024L20.3866 6.0718L25.9283 11.6135L12.9976 24.5441ZM9.30318 19.0024L12.9976 22.6969L24.081 11.6135L20.3866 7.91903L9.30318 19.0024ZM29.2511 6.63283C29.6693 7.14586 29.6391 7.90271 29.1609 8.38084L26.8519 10.6899L21.3102 5.14819L23.6192 2.83914C24.1293 2.32904 24.9564 2.32904 25.4665 2.83914L29.1609 6.53361L29.2511 6.63283ZM23.1574 5.14819L26.8519 8.84265L28.2373 7.45723L24.5428 3.76276L23.1574 5.14819Z" fill="#151515"/>
</svg>
