<svg width="24" height="24" viewBox="0 0 24 24" fill="none" xmlns="http://www.w3.org/2000/svg">
<path opacity="0.3" d="M13 16C13 13.2386 10.7614 11 8 11C5.23858 11 3 13.2386 3 16C3 18.7614 5.23858 21 8 21V22C4.68629 22 2 19.3137 2 16C2 12.6863 4.68629 10 8 10C11.3137 10 14 12.6863 14 16C14 19.3137 11.3137 22 8 22V21C10.7614 21 13 18.7614 13 16Z" fill="#151515"/>
<path opacity="0.7" d="M21 16C21 13.2386 18.7614 11 16 11C13.2386 11 11 13.2386 11 16C11 18.7614 13.2386 21 16 21V22C12.6863 22 10 19.3137 10 16C10 12.6863 12.6863 10 16 10C19.3137 10 22 12.6863 22 16C22 19.3137 19.3137 22 16 22V21C18.7614 21 21 18.7614 21 16Z" fill="#151515"/>
<path d="M17 8C17 5.23858 14.7614 3 12 3C9.23858 3 7 5.23858 7 8C7 10.7614 9.23858 13 12 13V14C8.68629 14 6 11.3137 6 8C6 4.68629 8.68629 2 12 2C15.3137 2 18 4.68629 18 8C18 11.3137 15.3137 14 12 14V13C14.7614 13 17 10.7614 17 8Z" fill="#151515"/>
</svg>
