<svg width="24" height="24" viewBox="0 0 24 24" fill="none" xmlns="http://www.w3.org/2000/svg">
<path d="M6.8291 2.11525C7.99295 1.88375 9.19957 2.00294 10.2959 2.45704C11.3922 2.91117 12.33 3.68033 12.9893 4.66701C13.4613 5.37367 13.7747 6.16943 13.915 7.00001H22V22H7V13.916C6.24165 13.7877 5.51251 13.5143 4.85351 13.1084L4.66699 12.9893C3.74208 12.3713 3.00819 11.5086 2.54589 10.5L2.45703 10.2959C2.00293 9.19958 1.88373 7.99297 2.11523 6.82911C2.33234 5.73794 2.84837 4.73011 3.60351 3.917L3.75781 3.75783C4.59684 2.91879 5.66534 2.3468 6.8291 2.11525ZM8 21H21V8.00001H8V21ZM9.91308 3.38087C8.99951 3.0025 7.99424 2.90281 7.02441 3.09572C6.05453 3.28865 5.16409 3.76561 4.46484 4.46486C3.76559 5.16411 3.28863 6.05455 3.0957 7.02443C2.90279 7.99425 3.00249 8.99953 3.38085 9.9131C3.75924 10.8266 4.39963 11.6079 5.22168 12.1572C5.76306 12.519 6.36826 12.7665 7 12.8955V7.00001H12.8955C12.7665 6.36828 12.519 5.76308 12.1572 5.22169C11.6078 4.39965 10.8265 3.75925 9.91308 3.38087Z" fill="#151515"/>
</svg>
