<svg width="24" height="24" viewBox="0 0 24 24" fill="none" xmlns="http://www.w3.org/2000/svg">
<path d="M17.3018 16.4561C17.4056 16.4561 17.5072 16.4886 17.5918 16.5488C18.2411 17.0118 18.7315 17.4479 19.0576 18C19.3876 18.5587 19.5206 19.1858 19.5586 19.9756L19.0596 20L18.5596 20.0234C18.5256 19.3181 18.4113 18.8728 18.1963 18.5088C17.9929 18.1646 17.6734 17.849 17.1387 17.4561H6.53418C6.15576 17.7904 5.9267 18.0806 5.77246 18.416C5.59627 18.7993 5.49755 19.2837 5.44043 20.0371L4.94141 20L4.44238 19.9619C4.5025 19.1685 4.61273 18.5431 4.86328 17.998C5.11837 17.4433 5.49997 17.013 6.02734 16.5723L6.09863 16.5225C6.1739 16.4793 6.25989 16.4561 6.34766 16.4561H17.3018ZM12 4.86523C14.7614 4.86523 17 7.10381 17 9.86523C16.9999 12.6266 14.7614 14.8652 12 14.8652C9.23862 14.8652 7.00007 12.6266 7 9.86523C7 7.10381 9.23858 4.86523 12 4.86523ZM12 5.86523C9.79086 5.86523 8 7.6561 8 9.86523C8.00007 12.0743 9.7909 13.8652 12 13.8652C14.2091 13.8652 15.9999 12.0743 16 9.86523C16 7.6561 14.2091 5.86523 12 5.86523Z" fill="#151515"/>
</svg>
