<svg width="24" height="24" viewBox="0 0 24 24" fill="none" xmlns="http://www.w3.org/2000/svg">
<path d="M12.3379 17.3681C12.1344 17.5546 11.8185 17.5412 11.6318 17.3378C11.4453 17.1343 11.4588 16.8184 11.6621 16.6318L17.2607 11.4999L11.6621 6.36811C11.4588 6.18148 11.4453 5.86554 11.6318 5.66205C11.8185 5.45871 12.1344 5.44525 12.3379 5.63178L18.3379 11.1318C18.4411 11.2265 18.5 11.3599 18.5 11.4999C18.5 11.64 18.4411 11.7734 18.3379 11.8681L12.3379 17.3681Z" fill="black"/>
<path d="M6.83758 17.3681C6.6341 17.5546 6.31815 17.5412 6.13153 17.3378C5.945 17.1343 5.95845 16.8184 6.1618 16.6318L11.7604 11.4999L6.1618 6.36811C5.95845 6.18148 5.945 5.86554 6.13153 5.66205C6.31815 5.45871 6.6341 5.44525 6.83758 5.63178L12.8376 11.1318C12.9408 11.2265 12.9997 11.3599 12.9997 11.4999C12.9997 11.64 12.9408 11.7734 12.8376 11.8681L6.83758 17.3681Z" fill="black"/>
</svg>
