<svg width="24" height="24" viewBox="0 0 24 24" fill="none" xmlns="http://www.w3.org/2000/svg">
<path d="M8.27969 5.61255C8.47165 5.61241 8.64714 5.72204 8.73117 5.89461L14.5839 17.9496L14.1324 18.168L13.6809 18.3874L11.8808 14.6795H4.69521L2.90297 18.3864L2 17.9496L7.8282 5.89559L7.86444 5.83389C7.95667 5.69712 8.11167 5.61268 8.27969 5.61255ZM19.1389 10.6249C20.0053 10.6557 20.7503 10.7768 21.2533 11.3134C21.7401 11.8331 21.891 12.6317 21.9546 13.66C22.0197 14.7141 21.9957 16.1832 21.9957 18.1719H20.9928C20.9928 17.8539 20.9931 17.5508 20.9938 17.2621C20.3947 17.8869 19.5173 18.2815 18.5395 18.2816C16.7351 18.2814 15.2723 16.9385 15.2723 15.2818C15.2726 13.6253 16.7352 12.2822 18.5395 12.282C19.4732 12.2821 20.3139 12.6436 20.9096 13.2203C20.8318 12.5289 20.6993 12.1886 20.5217 11.999C20.3216 11.7855 19.9624 11.6573 19.1026 11.6268C18.2439 11.5964 17.1282 11.6601 15.4839 11.6601V10.6573C17.0367 10.6573 18.2713 10.5942 19.1389 10.6249ZM18.5395 13.2849C17.2068 13.2851 16.2755 14.2581 16.2752 15.2818C16.2752 16.3057 17.2066 17.2785 18.5395 17.2787C19.8725 17.2786 20.8048 16.3057 20.8048 15.2818C20.8045 14.2581 19.8723 13.2851 18.5395 13.2849ZM5.18 13.6766H11.3941L8.28067 7.26376L5.18 13.6766Z" fill="#151515"/>
</svg>
