<svg width="24" height="24" viewBox="0 0 24 24" fill="none" xmlns="http://www.w3.org/2000/svg">
<path d="M12.4746 2.0127C17.7379 2.27981 21.9237 6.63527 21.9238 11.9688L21.9102 12.4824C21.6431 17.7495 17.2915 21.9384 11.9619 21.9385L11.4492 21.9248C6.18569 21.6579 2 17.3025 2 11.9688C2.00015 6.46314 6.46029 2 11.9619 2L12.4746 2.0127ZM11.7373 20.9326C11.812 20.9345 11.8868 20.9385 11.9619 20.9385C12.3242 20.9385 12.6812 20.9139 13.0322 20.8721L20.8564 13.0479C20.8989 12.694 20.9238 12.3341 20.9238 11.9688C20.9238 11.8963 20.9197 11.824 20.918 11.752L11.7373 20.9326ZM9.44434 20.5771C9.77165 20.6729 10.1066 20.7494 10.4482 20.8076L20.7949 10.4609C20.7371 10.1192 20.6597 9.78444 20.5645 9.45703L9.44434 20.5771ZM14.8643 20.4541C17.4756 19.5595 19.5414 17.4937 20.4375 14.8809L14.8643 20.4541ZM7.58105 19.792C7.84788 19.942 8.12245 20.0796 8.40527 20.2021L20.1914 8.41602C20.0692 8.13301 19.9328 7.85784 19.7832 7.59082L7.58105 19.792ZM6.0332 18.6924C6.25234 18.8861 6.48134 19.0684 6.71875 19.2402L19.2314 6.72852C19.0599 6.49054 18.8781 6.26067 18.6846 6.04102L6.0332 18.6924ZM11.9619 3C7.01327 3 3.00015 7.01473 3 11.9688C3 14.2867 3.87844 16.3993 5.32031 17.9912L17.9844 5.32715C16.3931 3.88117 14.2802 3.00005 11.9619 3Z" fill="#151515"/>
</svg>
