<svg width="32" height="32" viewBox="0 0 32 32" fill="none" xmlns="http://www.w3.org/2000/svg">
<path d="M18.2222 2.66675C19.0404 2.66675 19.7037 3.33003 19.7037 4.14823V5.62971H25.6296V7.1083H24.1481V27.8519C24.1481 28.6189 23.5654 29.2501 22.8186 29.3262L22.6667 29.3334H9.33332L9.18141 29.3262C8.43456 29.2501 7.85184 28.6189 7.85184 27.8519V7.1083H6.37036V5.62971H12.2963V4.14823C12.2963 3.33003 12.9596 2.66675 13.7778 2.66675H18.2222ZM9.33332 27.8519H22.6667V7.11119H9.33332V27.8519ZM12.3064 11.5556V24.889H10.8278V11.5556H12.3064ZM16.7509 24.889H15.2723V10.0742H16.7509V24.889ZM21.1953 24.889H19.7167V11.5556H21.1953V24.889ZM13.7778 5.62971H18.2222V4.14823H13.7778V5.62971Z" fill="#151515"/>
</svg>
