<svg width="24" height="24" viewBox="0 0 24 24" fill="none" xmlns="http://www.w3.org/2000/svg">
<path d="M5.47665 4.7533C5.67189 4.5581 5.98842 4.55811 6.18369 4.7533C6.37857 4.94855 6.37877 5.26517 6.18369 5.46033L3.85556 7.78943C3.91596 7.78942 3.97877 7.78944 4.04306 7.78943C4.9166 7.7893 6.14343 7.78856 7.55478 7.78845C10.3777 7.78824 13.941 7.7886 16.9024 7.78943C18.5526 7.78989 19.8088 8.53653 20.6378 9.64685C21.4559 10.7429 21.8504 12.1782 21.8517 13.5883C21.8528 14.9984 21.4606 16.4348 20.6427 17.5316C19.8141 18.6425 18.5572 19.3895 16.9034 19.391C13.9325 19.3935 11.4793 19.3936 9.76962 19.3929C8.91494 19.3926 8.24555 19.3924 7.79013 19.392C7.56255 19.3918 7.38794 19.3911 7.2706 19.391H7.09286L7.09482 18.391H7.27158C7.38886 18.3911 7.56355 18.3918 7.79111 18.392C8.24643 18.3924 8.91594 18.3926 9.7706 18.3929C11.4799 18.3936 13.9322 18.3935 16.9024 18.391C18.2185 18.3898 19.1871 17.8104 19.8409 16.934C20.5054 16.0429 20.8527 14.8285 20.8517 13.5892C20.8506 12.3499 20.5012 11.1355 19.836 10.2445C19.1814 9.36783 18.2137 8.78981 16.9024 8.78943C13.9411 8.7886 10.3778 8.78824 7.55478 8.78845C6.14338 8.78856 4.91659 8.7893 4.04306 8.78943C3.97871 8.78944 3.91601 8.78942 3.85556 8.78943L6.18466 11.1166C6.37983 11.3118 6.37971 11.6283 6.18466 11.8236C5.98952 12.0187 5.67291 12.0195 5.47763 11.8246L2.29501 8.64294C2.09977 8.44778 2.09997 8.13123 2.29501 7.93591L5.47665 4.7533Z" fill="#151515"/>
</svg>
